<?xml version="1.0" encoding="UTF-8" standalone="no"?>
<!DOCTYPE svg PUBLIC "-//W3C//DTD SVG 1.1//EN" "http://www.w3.org/Graphics/SVG/1.1/DTD/svg11.dtd">
<svg width="100%" height="100%" viewBox="0 0 1352 1308" version="1.1" xmlns="http://www.w3.org/2000/svg" xmlns:xlink="http://www.w3.org/1999/xlink" xml:space="preserve" xmlns:serif="http://www.serif.com/" style="fill-rule:evenodd;clip-rule:evenodd;stroke-linejoin:round;stroke-miterlimit:2;">
    <g transform="matrix(1,0,0,1,-102.259,-13.4294)">
        <path d="M969.684,221.802C969.183,141.598 1010.01,65.496 1077.55,39.307L1262.28,14.88C1442.7,43.667 1456.38,302.21 1327.52,391.399C1300.45,410.132 1267.09,421.394 1227.67,421.486L1051.09,393.497C1001.85,353.388 976.642,299.036 970.943,244.582C958.353,240.66 931.081,240.266 891.475,242.836L892.703,246.173C908.264,238.668 905.256,254.794 906.328,265.729L902.936,298.866C902.936,298.866 907.269,309.407 905.504,341.206C903.833,371.301 896.489,383.847 894.029,390.514C894.029,390.514 886.607,408.746 882.944,412.694C881.207,414.566 877.249,436.931 875.406,442.836C874.223,446.628 866.232,463.187 866.272,476.336C866.315,490.122 865.192,498.154 864.561,504.212C863.903,510.536 855.981,529.085 852.711,543.408C847.934,564.331 829.525,576.987 828.769,583.103C828.769,583.103 826.237,591.293 831.062,612.238C834.059,625.25 837.611,639.495 838.769,654.194C841.538,689.312 910.796,730.279 910.796,730.279C910.796,730.279 953.76,732.955 970.286,746.092C987.586,759.842 1001.18,766.889 1006.93,785.667C1015.29,812.952 1017.46,822.511 1014.17,847.387C1011.46,867.931 980.576,898.456 972.649,903.403C966.359,907.329 946.114,914.199 946.114,914.199C946.114,914.199 950.622,923.195 954.086,941.889C958.334,964.812 949.321,989.997 951.519,996.976C952.674,1000.65 948.372,1022.25 951.519,1044.24C952.498,1051.08 952.785,1066.04 954.086,1068.33C956.374,1072.36 965.449,1079.54 967.602,1086.08C974.3,1106.42 979.686,1133.49 979.686,1133.49L884.655,1144.96L839.587,1140.69C839.587,1140.69 834.829,1117.43 872.122,1096.49C879.301,1092.46 900.517,1074.74 900.443,1066.5C899.83,997.973 856.336,957.337 842.94,934.852C839.756,929.508 830.098,910.895 830.098,910.895C830.098,910.895 800.313,908.598 779.314,913.672C758.581,918.682 744.19,921.942 714.839,921.687C687.053,921.445 664.902,910.616 645.859,894.061C639.383,888.431 639.171,888.192 630.732,888.313C631.161,889.448 638.024,894.959 638.949,920.831C640.039,951.274 629.919,955.498 630.732,975.051C631.348,989.855 630.346,1058.78 643.567,1063.19C651.294,1065.77 662.41,1111.12 659.037,1119.22L502.638,1125.57C502.638,1125.57 500.765,1118.26 505.855,1110.44C509.124,1105.42 510.945,1102.54 515.795,1099.03C525.901,1091.7 556.171,1083.2 567.312,1072.92C574.715,1066.08 588.429,1041.33 583.028,1029.8C582.156,1027.94 576.582,1013.93 570.947,996.976C564.852,978.633 556.992,961.591 554.125,954.162C542.018,922.788 539.884,895.807 536.879,876.859C535.085,865.545 535.381,843.731 533.626,832.788C530.578,813.78 567.312,799.225 567.312,799.225C592.426,782.927 634.767,767.005 683.567,770.005C683.567,770.005 641.665,741.866 623.335,706.819C619.992,700.428 605.13,668.423 598.425,636.583C591.159,602.08 588.156,575.86 588.156,575.86C588.156,575.86 573.139,563.716 567.312,557.81C564.634,555.096 552.315,534.695 552.101,527.949C551.816,518.96 538.605,505.303 536.879,485.749C535.362,468.563 545.348,454.755 551.972,445.922C551.972,445.922 550.223,413.354 554.125,400.166C556.655,391.617 564.353,372.376 570.947,360.026C574.936,352.556 576.114,343.152 578.573,337.755C581.801,330.669 583.028,326.97 583.028,326.97L593.291,284.313L593.86,278.899C568.51,282.635 542.201,286.601 515.025,290.776C520.31,366.186 493.497,441.148 439.869,454.046C374.099,474.706 307.044,489.677 232.953,473.489C132.856,418.677 99.659,235.158 197.237,166.868C254.787,138.834 315.375,129.025 376.492,122.391C457.664,125.558 501.316,194.839 512.663,269.445C540.648,264.85 568.518,260.424 596.247,256.207L597.349,245.722L632.461,225.838L658.204,240.358L653.56,247.771C716.013,238.9 777.638,231.246 838.121,225.272L837.167,219.083L856.579,208.703L869.467,212.821L899.025,201.565L919.775,214.436L909.25,219.006C929.137,217.478 948.883,216.157 968.476,215.062L969.684,221.802ZM842.641,246.87C791.244,251.843 726.915,259.923 652.465,270.435L658.801,282.55L631.587,304.213L625.877,306.956C625.877,306.956 622.245,330.293 621.623,333.474C618.805,347.899 630.718,385.538 629.567,400.166C628.986,407.56 627.614,414.645 627.614,414.645C627.614,414.645 629.007,415.368 634.155,416.929C643.055,419.628 651.091,423.209 658.861,433.232C658.92,433.308 658.979,433.384 659.037,433.46C662.947,438.534 667.273,445.185 670.517,455.504C672.959,463.271 682.38,489.51 684.423,494.705C685.416,497.231 692.999,508.2 692.999,508.2L725.204,520.426L754.07,496.486C754.07,496.486 765.019,487.077 767.824,478.856C769.589,473.683 776.015,460.826 777.9,453.917C784.07,431.297 807.642,419.874 815.255,415.109C816.097,414.582 817.433,412.99 817.32,411.235C817.206,409.452 819.328,403.706 819.888,400.749C820.452,397.762 821.379,392.041 823.506,389.103C824.52,387.702 826.154,382.397 826.063,379.628C825.685,368.117 829.403,353.772 836.332,335.581C840.46,324.741 848.386,309.729 848.386,309.729L850.284,299.078L855.297,258.307L842.641,246.87ZM136.999,324.69L138.755,358.65L113.984,362.249C103.939,356.445 99.336,348.168 104.22,335.579L136.999,324.69Z" style="fill:rgb(255,224,0);"/>
    </g>
    <g transform="matrix(0.848952,0,0,0.848952,-4.35258,-4.08964)">
        <path d="M1348.52,5.451C1352.73,5.057 1356.98,4.844 1361.24,4.818C1361.64,4.817 1362.05,4.817 1362.46,4.818C1392.29,5.007 1421.42,14.666 1446.44,31.135C1477.44,51.54 1501.62,81.227 1518.57,113.732C1545,164.423 1554.64,223.219 1549.4,279.971C1543.52,343.713 1519.83,406.269 1470.16,449.03C1444.01,471.541 1410.69,486.029 1376.3,489.205C1313.76,500.668 1161.46,477.464 1141.78,472.124C1112.78,464.251 1086.25,435.466 1085.2,434.276C1084.89,433.932 1084.37,433.258 1083.66,432.321C1069.44,417.645 1057.77,400.442 1048.57,382.401C1032.3,350.492 1022.91,315.307 1019.98,279.43L1019.04,279.415L972.578,282.052L971.855,283.971C967.249,291.379 962.2,299.176 955.555,303.593C955.555,303.593 952.1,335.177 952.1,335.177C956.202,352.883 957.832,370.911 958.605,388.956C959.363,406.657 959.127,424.522 955.261,441.782C950.796,461.715 942.395,480.581 932.867,498.719C932.867,498.719 929.551,503.241 926.563,507.446C923.608,511.606 920.717,516.012 918.495,520.542C917.236,524.323 915.973,528.1 914.707,531.875C914.428,533.675 914.323,535.479 914.427,537.279C914.897,546.103 913.266,554.771 911.027,563.583C910.721,564.816 910.471,566.062 910.33,567.327C910.296,567.595 910.296,567.595 910.259,567.863C907.15,588.831 899.247,609.167 894.167,630.785C891.384,642.631 885.629,653.484 877.139,662.631C875.132,664.777 872.647,666.676 871.417,669.249C871.388,669.309 871.353,669.404 871.354,669.399L871.358,669.384C871.358,669.384 870.846,671.132 870.846,671.132C869.105,674.843 868.273,679.053 867.689,683.231C865.683,697.578 869.98,712.032 873.155,726.792C873.54,728.582 873.909,730.373 874.263,732.167C876.373,739.469 878.237,746.819 879.714,754.226C880.428,757.802 880.618,761.488 881.284,764.934C882.397,770.699 884.655,776.13 887.599,781.283C890.224,785.006 893.199,788.598 896.281,792.076C913.767,811.809 935.417,827.733 957.994,841.601C957.994,841.601 959.598,841.997 961.182,842.252C980.25,845.382 999.404,849.518 1016.66,857.812C1028.59,863.549 1038.89,873.041 1048.88,882.572C1062.09,895.175 1073.62,909.647 1079.31,927.032C1082.87,937.912 1086.2,948.942 1086.5,960.415C1086.71,968.907 1085.8,977.396 1084.74,985.838C1082.14,1005.92 1069.92,1023.94 1055.71,1038.74C1043.6,1051.36 1028.5,1060.43 1012.44,1067.93C1012.79,1070.51 1013.47,1074.6 1014.69,1081.03C1017.53,1096.07 1011.68,1141.33 1009.63,1166.9C1008.02,1186.88 1010.98,1205.82 1012.63,1217.09C1013.8,1225.09 1016.14,1242.58 1017.69,1245.25C1018.52,1246.69 1019.94,1248.49 1021.56,1250.5C1021.95,1250.96 1022.32,1251.42 1022.69,1251.89C1026.16,1256.16 1030.19,1261.22 1031.79,1265.99C1035.89,1278.18 1037.99,1291.14 1039.07,1300.86C1040.31,1306.3 1041.47,1311.75 1042.58,1317.2C1042.58,1317.2 1043.06,1319.58 1042.14,1321.42C1041.27,1323.18 1039.45,1324.13 1037.49,1324.7L926.44,1338.12L925.154,1338.13L872.489,1333.13C870.555,1332.63 868.742,1331.75 867.809,1330.07C866.46,1327.64 866.734,1324.82 866.877,1322.2C867.705,1307.01 877.757,1293.11 889.11,1283.38C895.059,1278.28 901.678,1274.03 908.45,1270.11C918.4,1264.22 927.558,1255.98 934.627,1246.8C936.105,1244.88 937.863,1242.87 938.166,1240.56C938.33,1239.11 938.126,1237.55 938.075,1236.02C936.796,1197.93 921.805,1161.64 898.993,1129.8C889.932,1117.16 879.447,1105.2 871.498,1092.17C871.095,1091.52 870.684,1090.87 870.266,1090.23C870.147,1090.07 870.068,1089.94 869.977,1089.79C867.448,1085.94 864.685,1082.27 861.917,1078.59L861.677,1078.28C815.755,1079.6 770.092,1083.2 725.64,1077.29C705.39,1074.6 685.764,1068.26 666.147,1060.37C657.35,1056.84 649.185,1051.9 640.987,1048.33L641.037,1048.41C651.556,1066.81 652.429,1087.17 646.24,1116.76C644.338,1125.86 639.704,1139.86 637.448,1149.05C636.999,1150.87 636.628,1153.11 636.325,1155.68C637.404,1178.16 638.514,1200.88 643.495,1222.3C644.311,1225.8 645.099,1229.62 646.935,1232.27C646.935,1232.27 650.695,1234.82 652.966,1238.57C660.396,1250.87 663.521,1265.69 666.229,1279.94C667.684,1287.6 669.201,1295.47 668.286,1303.09C668.124,1304.44 667.837,1305.79 667.327,1307.06L666.091,1308.97C664.243,1310.28 664.216,1310.29 662.014,1310.81L473.161,1318.81C471.051,1318.54 469.025,1317.83 467.9,1316.12C466.385,1313.83 466.414,1310.67 466.539,1307.61C467.064,1294.81 476.036,1282.92 485.603,1276.35C501.721,1265.27 521.318,1259.82 538.683,1248.26C548.42,1241.78 557.572,1233.38 563.364,1224.19C565.449,1220.88 567.177,1216.99 565.546,1213.45C565.546,1213.45 564.236,1208.45 563.321,1203.74C561.032,1192.07 558.089,1180.52 553.787,1169.47C547.773,1154.02 538.274,1140.12 532.512,1124.82C521.663,1096.01 515.245,1065.69 510.392,1035.12C507.429,1015.97 510.226,995.388 507.461,976.393C506.89,972.469 506.949,968.467 507.936,964.547C512.16,947.764 527.389,935.935 540.372,928.34L540.353,928.35C566.403,911.522 597.186,902.541 627.757,896.76C643.459,893.79 659.389,891.982 675.391,891.637L675.76,891.63C675.245,891.207 674.732,890.782 674.218,890.357C649.397,869.694 626.216,846.769 612.544,817.878C599.806,790.962 589.99,762.065 584.2,733.674C580.098,713.558 576.587,693.284 573.914,672.865C570.481,669.592 568.354,667.194 568.354,667.194C564.836,664.207 561.687,661.115 558.858,657.937C556.009,655.443 553.234,652.887 550.592,650.221C550.592,650.221 546.796,645.369 543.939,640.93C537.989,631.685 531.919,622.222 528.512,611.934C527.257,608.144 527.556,604.106 526.348,600.299C524.445,594.302 520.946,588.987 518.457,583.064C511.754,567.114 511.582,548.747 518.95,532.746C522.067,525.975 526.206,519.726 530.639,513.714C530.639,513.714 530.787,511.596 530.712,509.28C530.137,490.521 529.669,471.363 535.607,454.316C540.667,439.786 546.689,425.657 553.914,411.931C559.248,401.518 558.262,388.586 563.245,377.499C564.741,374.143 566.196,370.765 567.435,367.303L577.136,323.784L499.772,337.18C499.776,337.252 499.781,337.325 499.785,337.4C502.578,383.906 496.568,432.662 472.195,472.075C450.296,507.485 412.205,531.859 370.132,538.349C323.011,549.784 253.334,560.202 216.145,559.09L214.957,559.247C201.085,558.343 187.236,559.134 173.994,555.364C132.36,543.509 98.748,509.127 78.465,472.389C69.16,455.537 62.054,437.491 56.944,418.936L29.532,423.008C29.532,423.008 30.099,422.872 29.38,423.04C23.322,424.362 16.639,422.472 12.527,417.787C2.032,405.827 2.681,383.429 14.599,377.336C16.639,376.293 18.836,375.558 21.078,375.053L47.887,368.451C46.24,350.124 46.3,331.892 47.883,314.378C50.677,283.471 59.52,252.57 77.685,227.002C95.882,201.389 122.793,182.904 152.656,171.606C175.068,161.771 198.88,155.162 222.918,149.689C257.235,141.875 292.104,136.899 327.25,133.902L328.779,133.806C328.987,133.821 329.196,133.836 329.405,133.852C329.443,133.859 329.482,133.866 329.52,133.874C333.529,133.557 337.549,133.402 341.567,133.404C376.003,133.545 409.631,147.666 434.69,173.091C469.239,208.146 486.426,257.422 495.369,304.661C523.571,299.347 551.799,294.136 580.121,289.443C580.586,286.461 581.441,283.519 582.949,280.663C584.915,276.942 588.594,274.408 592.204,271.982C598.749,267.584 605.916,263.937 613.229,261.285C613.377,261.23 613.524,261.174 613.671,261.117C616.223,260.1 617.524,257.454 619.676,255.838C625.989,251.099 635.312,252.99 642.25,258.455C642.25,258.455 651.097,257.204 655.722,261.179C655.959,261.383 656.195,261.59 656.43,261.797C661.669,266.443 666.287,271.927 669.619,278.01C674.831,277.113 680.047,276.274 685.26,275.404C744.76,265.479 804.697,257.63 864.58,251.938C866.086,247.664 868.47,243.768 872.237,240.785C876.504,237.407 881.158,234.728 885.556,231.777C889.183,229.344 893.834,228.571 897.955,230.004L899.974,231.189L901.385,233.057L901.975,235.323L901.875,236.04C903.837,233.295 906.772,230.929 910.4,229.864C920.776,226.818 934.108,225.334 944.926,225.245C945.135,225.244 945.344,225.244 945.553,225.244C956.447,225.293 962.752,233.414 970.16,241.947L1019.43,238.018C1020.23,223.354 1022.07,208.739 1024.93,194.348C1032.65,155.542 1048.03,118.061 1073.46,87.218C1092.01,64.725 1116.44,46.301 1144.34,37.847C1144.4,37.815 1144.46,37.784 1144.53,37.754C1160.4,30.286 1262.25,9.193 1348.52,5.451ZM797.448,1284.51C797.555,1284.53 797.555,1284.53 797.654,1284.58L838.985,1309.85L842.229,1292.85C842.229,1292.85 842.711,1292.09 843.153,1292.69L865.753,1331.91C865.975,1332.41 865.795,1332.63 865.288,1332.66L837.525,1330.86C837.396,1330.84 837.281,1330.78 837.183,1330.69L797.018,1285.34C796.675,1284.85 796.861,1284.51 797.448,1284.51ZM893.422,241.191C891.262,240.973 889.082,244.37 886.228,246.108C882.226,248.509 878.067,250.922 875.895,255.093C875.05,256.752 874.501,258.686 874.212,260.693C874.45,262.846 874.577,265.137 874.869,267.278C875.249,270.062 875.585,273.002 876.636,275.549C876.953,276.217 877.294,276.874 877.658,277.517C877.746,277.653 877.838,277.788 877.933,277.92C878.266,278.375 878.399,278.377 878.589,278.608C879.052,279.171 879.377,279.81 879.574,280.485C881.778,283.49 884.503,285.99 887.536,287.533C888.034,287.786 888.723,288 888.723,288L890.85,289.004L892.426,290.749L893.211,292.966C895.078,305.919 896.025,319.379 892.22,331.036C884.595,354.394 870.947,375.704 865.869,399.669C863.755,409.646 863.057,419.885 863.258,430.033C863.357,437.7 862.576,445.592 860.754,452.375C859.467,457.169 857.809,461.941 857.041,466.763C857.041,466.763 856.853,469.02 856.113,470.414C853.345,475.632 847.14,477.075 842.122,481.076C825.776,494.106 814.145,512.615 804.329,530.989C800.013,539.07 796.307,547.471 793.032,555.995C789.897,563.956 780.994,568.818 775.004,574.303C773.966,575.254 773.152,576.433 772.329,577.589C768.703,582.704 765.173,587.888 761.89,593.216L761.841,593.296C761.099,594.27 761.096,594.273 760.171,595.075L742.84,607.251C741.277,607.998 740.878,608.429 739.073,608.333C738.411,608.298 737.78,608.044 737.133,607.9L699.498,592.613C696.84,591.052 695.235,588.167 693.494,585.567C690.523,581.129 687.363,576.682 685.581,571.997C679.882,556.922 674.434,541.682 669.512,526.495C664.823,512.182 655.783,498.12 641.693,491.19C638.166,489.455 634.571,487.86 630.95,486.322C630.192,486.463 629.391,486.517 628.567,486.469C605.915,485.249 582.192,488.34 563.441,500.216C554.811,505.683 546.88,512.444 540.533,520.386C540.237,520.869 539.906,521.367 539.536,521.872C530.565,534.196 523.533,548.214 525.581,563.901C527.456,578.255 537.89,590.536 539.263,603.862C544.936,607.576 552.532,613.005 555.169,617.002C559.575,623.68 561.037,637.035 561.037,637.035L566.433,648.627C567.455,649.471 568.485,650.317 569.491,651.182C573.698,654.795 577.965,658.338 582.262,661.844L583.018,662.459L583.334,662.837L598.683,673.165C623.006,674.686 642.311,649.649 668.19,627.677C661.442,648.31 624.476,690.003 606.795,690.915C600.625,691.233 593.746,688.056 587.533,683.93C592.58,719.17 599.735,754.006 612.322,786.702C620.227,807.237 629.599,826.93 644.337,844.428C659.771,862.752 677.716,879.067 697.083,893.009L697.225,893.111C698.07,893.99 698.631,894.418 699.037,895.125L711.307,904.851L676.102,903.583C639.125,904.02 601.971,912.512 568.674,927.028C553.559,933.617 538.391,941.482 527.02,954.548C522.1,960.202 518.186,966.942 519.336,974.664C522.073,993.91 519.408,1013.18 522.162,1032.7L522.204,1032.98C526.966,1063.76 533.527,1094.03 544.702,1123.11C548.393,1132.56 554.158,1141.33 558.683,1150.75C567.171,1168.41 572.323,1187.53 576.102,1206.63C576.161,1206.93 576.221,1207.23 576.283,1207.52C577.073,1211.21 578.74,1215.06 577.896,1219.91C576.051,1230.53 567.89,1238.6 560.351,1245.63C552.777,1252.7 544.636,1259.11 535.581,1264.07C522.281,1271.36 507.95,1276.85 494.897,1284.65C489.343,1287.97 485.205,1292.97 481.588,1298.58C480.065,1300.99 479.031,1303.71 478.66,1306.55C478.66,1306.55 656.49,1299.04 656.49,1299.04C656.412,1284.49 652.476,1270.25 647.709,1256.4C646.077,1251.67 644.633,1246.48 641.443,1243.02C641.328,1242.89 640.346,1242.43 639.528,1241.78C638.765,1241.17 638.09,1240.49 637.487,1239.74C631.441,1233.4 624.316,1205.48 619.937,1159.9L605.837,1132.29C605.837,1132.29 613.75,1134.29 619.507,1132.29C622.923,1131.11 626.344,1124.07 628.561,1118.54C630.037,1112.58 631.519,1106.57 632.414,1100.41C633.046,1092.82 633.234,1083.09 631.034,1076.83C623.224,1054.6 591.495,1030.24 591.495,1030.24L613.552,1030.26C615.265,1029.92 618.224,1029.94 620.585,1029.95C629.415,1030.01 638.387,1032.07 646.018,1036.23C654.608,1040.87 664.006,1044.26 673.414,1047.38C693.583,1054.05 714.489,1058.25 735.869,1059.09C765.466,1060.24 795.483,1059.95 824.349,1053.67C832.454,1051.9 841.046,1049.98 847.578,1045.23C842.532,1034.98 837.543,1024.7 832.627,1014.39C832.627,1014.39 828.123,1010.51 824.686,1007.23C818.337,1001.17 813.201,993.815 810.959,985.01C807.835,972.741 809.568,959.598 816.559,948.554C832.68,923.087 858.873,903.779 889.249,899.628C911.117,896.639 925.193,893.917 938.282,892.804C942.767,892.423 963.45,891.854 967.65,893.085C977.869,896.081 980.448,900.499 980.448,900.499C980.448,900.499 971.713,900.048 967.904,900.247C962.332,900.537 955.349,901.617 947.016,902.24C928.841,903.6 910.201,909.133 891.765,911.4C864.465,914.91 839.593,933.042 825.298,957.262C818.942,968.03 819.985,983.345 827.615,992.834C831.454,997.608 836.147,1001.72 840.946,1005.44L842.69,1007.61C854.783,1033.05 867.274,1058.09 879.971,1083.02C882.498,1087.04 885.01,1091.14 887.847,1095.03C896.266,1106.57 905.372,1117.66 913.416,1129.49C935.702,1162.26 949.762,1200.27 950.17,1240.44C950.17,1240.44 949.63,1245.07 948.025,1248.16C942.165,1259.46 931.507,1268.16 921.163,1275.92C913.775,1281.47 905.711,1285.8 898.364,1291.54C895.264,1294.9 892.331,1298.4 890.393,1302.52C889.638,1304.12 888.946,1305.76 888.263,1307.39C888.263,1307.39 887.336,1308.79 886.094,1308.51C884.897,1308.25 884.767,1307.07 885.122,1305.57C881.914,1310.46 879.554,1315.94 878.952,1321.68L878.951,1321.69C954.333,1328.85 954.384,1322.65 1029.56,1313.58C1026.58,1299.67 1023.41,1285.92 1019.25,1272.39L1009.19,1254.9C1006.23,1251.95 1003.2,1248.9 1001.36,1245.05C999.405,1240.92 999.59,1235.88 999.23,1230.96C997.376,1205.62 992.969,1180.76 994.741,1154.89C995.916,1137.75 999.225,1120.63 998.586,1103.76C998.331,1097.03 996.647,1090.42 995.416,1083.75C994.885,1080.86 994.353,1077.97 993.824,1075.08C993.767,1074.8 993.709,1074.52 993.647,1074.25C987.964,1048.96 971.775,1026.07 955.654,1006.93C955.654,1006.93 953.354,1003.45 954.644,1000.52C955.487,998.601 957.397,997.199 959.482,996.97C960.283,996.882 960.477,996.947 960.736,996.964C964.498,997.475 963.843,997.998 965.369,999.837C975.089,1011.55 984.052,1023.96 991.331,1037.07C997.077,1036.91 1030.93,1035.49 1045.3,1023.81C1058.32,1013.23 1072.34,984.46 1074.48,960.74C1074.38,957.028 1074.02,953.326 1073.3,949.649C1070.02,932.863 1063.54,916.955 1052.29,903.585C1042.8,892.326 1031.7,882.209 1019.96,873.588C1011.48,867.361 1001.08,864.021 990.741,861.048C981.507,858.392 972.117,856.261 962.652,854.643C958.354,854.431 955.69,854.409 955.69,854.409L953.16,852.624C952.83,852.474 952.512,852.313 952.242,852.149C951.628,851.776 951.017,851.399 950.407,851.021C924.09,834.703 898.605,815.742 880.529,791.791C878.284,788.817 876.195,785.717 874.337,782.503C871.103,777.777 868.211,772.83 866.118,767.54L865.956,767.12L819.04,664.038C818.752,662.949 818.958,661.913 819.805,661.01L848.025,639.615L859.254,586.842C859.254,586.842 859.931,585.509 861.916,584.413C872.069,578.736 881.883,570.634 883.869,559.957C885.523,551.065 887.149,541.999 890.099,533.524C890.099,533.524 882.137,520.628 882.137,520.628L881.78,519.594L881.898,518.506L882.469,517.573L906.575,492.711L915.593,465.959C916.231,464.652 917.124,463.474 917.92,462.236C927.772,446.861 937.861,431.342 941.609,413.382C943.968,402.082 945.447,390.602 946.584,379.075C945.628,364.973 943.582,350.967 940.254,337.23L940.058,334.939L943.894,298.862C944.536,296.689 945.655,294.703 947.662,293.913C947.976,293.789 948.44,293.635 948.838,293.513C948.888,293.462 948.953,293.399 949.031,293.326C947.567,289.414 945.254,285.564 941.924,281.912C939.193,281.915 936.411,282.336 933.722,281.734C929.896,280.879 927.045,277.81 924.104,275.391C916.485,269.124 906.482,264.943 896.69,266.915C896.69,266.915 895.855,267.059 895.147,266.946C893.612,266.702 892.337,265.59 891.734,264.112L889.703,258.418C888.896,255.788 889.846,255.044 891.338,252.953C892.749,250.958 894.306,248.895 895.023,246.751C895.023,246.751 895.046,242.682 893.422,241.191ZM1065.7,1322.63L1052.35,1322.63C1051.88,1322.58 1051.83,1322.45 1051.86,1322.05L1056.35,1295.5C1056.39,1295.34 1056.43,1295.31 1056.46,1295.27L1094.75,1249.19C1094.88,1249.06 1095.05,1249 1095.26,1249.02C1095.66,1249.17 1095.65,1249.37 1095.63,1249.62L1082.3,1307.31C1082.28,1307.36 1082.28,1307.42 1082.16,1307.56L1066.04,1322.5C1065.94,1322.57 1065.83,1322.62 1065.7,1322.63ZM397.721,1270.1L397.821,1270.15C397.821,1270.15 444.584,1298.68 444.584,1298.68L465.144,1317.36C465.557,1317.83 465.355,1318.2 464.775,1318.23L424.766,1315.63C424.605,1315.6 424.472,1315.53 424.372,1315.39L397.134,1270.83C396.877,1270.28 397.138,1269.97 397.721,1270.1ZM737.386,1165.32C737.64,1165.43 737.77,1165.63 737.734,1165.94L707.195,1273.81C707.154,1273.91 707.154,1273.91 707.092,1274L682.221,1302.86C681.901,1303.14 681.592,1303.19 681.359,1302.67L671.337,1265.6C671.306,1265.34 671.363,1265.27 671.401,1265.19L736.835,1165.53C737.1,1165.23 737.21,1165.3 737.386,1165.32ZM413.277,1206.14C413.395,1206.2 413.395,1206.2 413.494,1206.28L474.827,1275.29C474.955,1275.48 474.976,1275.68 474.868,1275.9L459.813,1298.24C459.435,1298.67 459.225,1298.59 458.952,1298.19L412.674,1206.84C412.467,1206.25 412.721,1206.04 413.277,1206.14ZM1071.49,1200.59C1071.68,1200.7 1071.79,1200.87 1071.8,1201.1L1066.95,1250.76L1094.8,1224.98C1094.8,1224.98 1094.92,1224.76 1095.29,1224.88C1095.57,1224.97 1095.77,1225.19 1095.55,1225.63L1064.91,1271.11L1049.09,1298.21C1049.09,1298.21 1048.53,1298.77 1048.19,1298.14L1038.88,1273.77C1038.83,1273.54 1038.87,1273.47 1038.89,1273.39L1070.84,1200.85C1070.97,1200.63 1071.15,1200.5 1071.49,1200.59ZM670.331,1146.11C670.503,1146.17 670.633,1146.29 670.706,1146.47L691.499,1228.78C691.519,1228.93 691.489,1229.08 691.406,1229.21L670.848,1255.11C670.409,1255.53 670.174,1255.4 669.974,1254.93L659.951,1217.86C659.935,1217.76 659.935,1217.76 659.938,1217.66L669.726,1146.53C669.8,1146.26 669.944,1146.07 670.331,1146.11ZM871.003,288.705C809.64,294.207 747.507,300.943 687.001,310.633C681.837,311.46 676.641,312.162 671.529,313.238C668.005,330.427 651.598,338.95 638.922,344.338C638.922,344.338 631.897,382.403 632.525,386.467C635.206,403.799 638.528,436.737 639.493,446.152C640.923,460.1 639.207,471.28 638.171,476.319C641.455,477.743 647.035,480.25 650.59,482.318C666.745,491.718 676.694,510.021 681.991,526.091C686.63,540.064 691.598,554.021 696.801,567.742C698.64,572.593 702.014,576.759 704.988,581.149L705.685,582.174L738.619,595.551L752.27,585.961C755.953,580.082 759.882,574.336 763.938,568.693C763.938,568.693 768.978,563.662 774.077,559.739C777.349,557.204 780.816,554.419 782.054,551.092C792.242,523.716 807.527,497.598 828.539,477.121C832.66,473.105 837.051,469.449 842.233,466.754C843.513,466.074 845.187,464.902 845.187,464.902C846.921,453.997 851.444,444.522 851.26,430.23C850.847,409.444 854.903,388.259 863.239,368.872C869.657,353.944 877.774,339.376 881.897,323.664C883.988,315.7 882.809,307.159 881.845,298.682C881.845,298.682 882.002,298.196 881.254,297.777C877.273,295.51 873.854,292.354 871.003,288.705ZM142.039,527.24C148.564,531.787 155.467,535.753 162.734,538.907C154.753,534.56 147.217,530.314 142.039,527.24ZM204.691,166.375C194.188,169.284 183.796,172.554 173.548,176.237C170.454,177.349 167.378,178.51 164.326,179.731C135.729,200.425 117.907,233.597 108.477,265.979C87.166,339.155 99.087,423.057 141.67,484.257C156.974,506.253 176.815,525.634 200.717,537.162C215.922,538.434 232.046,538.799 248.017,538.185C246.77,537.624 245.53,537.039 244.298,536.432C213.634,521.313 189.897,494.962 173.159,466.262C131.834,395.403 125.824,303.216 158.242,229.734C168.923,205.523 184.253,182.929 204.691,166.375ZM275.148,151.867C260.088,154.064 245.094,156.735 230.259,160.023C228.72,160.811 227.199,161.637 225.699,162.498C193.733,180.848 172.386,214.149 160.482,247.647C135.919,316.772 143.716,397.774 180.125,460.932C200.314,495.952 230.035,526.609 269.766,536.718C282.828,535.442 295.441,533.458 306.976,530.725C304.428,529.664 301.915,528.518 299.446,527.29C272.507,513.9 250.679,491.764 234.417,467.075C210.211,430.324 196.999,386.577 194.096,342.406C190.893,293.674 199.572,244.177 226.566,201.164C238.909,181.494 255.38,164.092 275.148,151.867ZM139.209,190.564C108.808,206.081 83.894,231.731 71.262,264.295C56.696,301.845 56.4,344.053 61.703,382.621C68.197,429.844 87.058,476.028 121.264,509.803C126.077,514.556 131.18,519.077 136.562,523.223C147.452,528.228 162.322,532.084 179.291,534.666C156.951,519.407 138.979,498.062 125.479,475.078C83.227,403.146 77.649,309.437 109.969,236.452C117.348,219.79 126.904,204.029 139.209,190.564ZM483.58,306.888C483.459,306.271 483.344,305.653 483.225,305.038C476.449,270.245 465.393,235.873 445.979,206.291C427.395,177.974 399.57,154.926 366.134,147.925C342.565,142.99 317.394,144.866 295.505,154.42C258.185,170.709 231.847,206.888 217.987,247.136C205.713,282.779 202.854,321.441 207.773,358.923C214.176,407.714 234.111,455.83 268.245,489.839C293.931,515.431 329.133,531.976 366.174,526.78C406.075,521.182 442.939,498.509 463.893,462.594C485.094,426.254 490.259,381.905 487.87,339.241L437.445,347.972C438.618,373.641 433.384,400.307 416.96,420.591C398.899,442.897 366.581,453.265 338.595,442.154C318.626,434.225 302.826,417.289 292.882,399.019C284.117,382.915 279.126,364.873 277.558,346.55C275.171,318.667 281.009,289.252 298.662,267.867C312.022,251.683 332.307,241.263 353.509,240.967C353.829,240.963 354.149,240.962 354.469,240.962C370.909,241.027 387.041,247.63 399.551,258.374C416.688,273.092 427.409,294.435 432.612,316.489C449.605,313.333 466.589,310.102 483.58,306.888ZM628.826,265.017C628.16,265.106 627.454,265.308 626.752,265.585C625.651,266.797 624.037,268.412 621.888,269.932C621.535,271.481 620.989,274.098 620.736,276.47C620.277,280.766 620.025,285.08 619.882,289.395C619.882,289.395 619,293.06 615.679,293.919C615.388,293.995 615.098,294.073 614.808,294.153C606.488,296.473 598.232,301.308 594.387,309.373C593.008,312.265 592.13,315.366 591.445,318.499C591.445,318.499 591.017,319.453 590.197,320.35L579.104,370.157C577.784,374.889 575.403,379.528 573.433,384.1C571.58,388.554 571.108,393.551 570.142,398.438C568.628,406.037 566.568,413.484 563.017,420.425C555.909,434.385 549.344,448.608 545.098,463.959C543.117,471.122 542.895,478.725 542.651,486.252C542.493,491.155 542.452,496.061 542.513,500.966C553.199,491.339 565.822,483.89 579.582,479.842C592.88,475.93 606.819,474.346 620.731,474.282C620.995,474.282 621.258,474.281 621.521,474.282C622.134,474.283 622.748,474.287 623.361,474.294C623.77,472.714 624.133,471.127 624.443,469.531L625.631,458.448C625.655,456.727 625.6,454.992 625.458,453.239C623.822,433.122 618.704,413.359 617.214,393.248L616.062,386.467C616.062,386.467 612.764,344.78 620.646,332.571C626.07,324.171 628.744,322.208 635.94,317.595C639.993,314.996 641.54,312.24 642.083,310.166C639.372,305.079 638.827,298.667 639.307,293.423C639.433,292.041 639.626,290.664 639.894,289.303L639.894,289.276C639.811,280.668 637.758,271.697 631.933,265.981C630.859,265.43 629.793,265.072 628.826,265.017ZM1361.29,16.818C1333.44,16.991 1306.16,26.066 1282.84,41.694C1233.42,74.795 1203.17,132.125 1191.95,192.205C1177.84,267.703 1192.12,349.694 1238.31,410.431C1262.22,441.866 1296.04,467.379 1335.48,475.265C1385.93,485.352 1440.06,464.518 1475.04,427.84C1526.37,374.023 1544.94,292.576 1537.19,218.346C1531.47,163.545 1510.93,109.789 1472.51,68.865C1444.64,39.185 1406.79,17.912 1365.2,16.859C1363.89,16.826 1362.59,16.815 1361.29,16.818ZM1218.9,33.381C1206.27,35.081 1194.33,37.012 1183.21,39.054C1179.47,41.743 1174.85,43.804 1170.75,46.458C1146.9,61.903 1127,83.357 1112.24,107.511C1082.86,155.596 1072.19,213.612 1074.1,269.113C1076.11,327.392 1092.79,386.254 1131.42,430.926C1138.67,439.304 1146.79,447.068 1155.7,453.65C1164.2,454.15 1173.24,453.959 1182.87,453.076C1167.94,438.945 1156.07,421.287 1146.79,403.061C1108.27,327.426 1105.34,232.984 1130.02,154.536C1144.5,108.504 1171.02,65.109 1211.67,37.952C1214.04,36.366 1216.45,34.842 1218.9,33.381ZM1283.86,26.819L1281.07,27.65C1268.35,28.278 1256.02,29.227 1244.16,30.416C1217.15,41.643 1193.27,60.712 1175.17,84.322C1146.02,122.335 1131.3,169.527 1125.94,216.395C1118.86,278.369 1126.26,343.243 1154.29,398.62C1164.31,418.403 1177.48,437.691 1194.06,451.777C1210.41,449.494 1228.38,445.388 1248.17,439.45C1231.65,423.05 1217.74,403.799 1207.11,383.516C1167.9,308.661 1164.34,215.994 1195.12,137.514C1212.73,92.583 1241.7,51.702 1283.86,26.819ZM1154.05,47.664C1152.63,48.009 1151.17,48.344 1149.76,48.738C1115.79,58.212 1087.48,84.816 1069.14,113.59C1035.12,166.935 1024.97,234.503 1034.42,297.594C1041.04,341.875 1057.2,385.136 1088.12,419.483C1097.45,429.847 1108.28,439.153 1120.28,446.514C1126.37,448.794 1132.82,450.549 1139.65,451.776C1127.76,441.078 1117.53,428.544 1109.03,415.621C1063.61,346.543 1055.78,253.728 1074.67,176.877C1086.96,126.893 1113.22,79.197 1154.05,47.664ZM424.039,318.074C417.848,292.431 403.733,267.973 380.992,256.225C350.511,240.478 309.175,256.167 293.558,293.099C277.209,331.764 286.574,379.06 309.584,408.782C324.517,428.072 347.915,441.67 372.928,437.3C391.871,433.991 408.415,420.958 417.656,403.889C426.528,387.503 429.472,368.247 428.792,349.47L407.036,353.237C404.949,361.4 401.831,369.528 394.71,374.479C394.071,375.183 393.207,375.846 392.081,376.436C380.906,382.287 367.253,384.197 355.22,382.448L354.029,382.264C341.351,376.219 334.174,361.967 331.906,348.469C329.756,335.68 332.305,321.618 342.106,311.957C342.106,311.957 345.269,309.787 348.333,308.454C355.647,305.27 363.589,303.695 371.675,303.656C372.265,303.595 372.87,303.577 373.473,303.581C384.457,303.752 395.347,309.859 400.593,318.539C401.273,319.663 401.914,320.811 402.52,321.979C409.696,320.698 416.868,319.394 424.039,318.074ZM49.214,380.483C40.753,382.567 32.291,384.651 23.83,386.734C22.06,387.17 19.63,388.241 19.548,388.329C17.13,390.993 17.244,396.194 17.836,400.551C18.535,405.69 20.286,412.742 26.738,411.334L27.112,411.236L54,407.241C51.975,398.38 50.386,389.436 49.214,380.483ZM1471.16,288.406C1462.12,326.257 1437.76,361.938 1400.34,370.254C1378.53,375.103 1354.85,368.896 1337.04,355.015C1306.9,331.512 1292.55,291.352 1292.83,252.06C1293.02,225.309 1299.81,198.544 1314.69,175.941C1329.9,152.839 1354.53,134.848 1383.68,134.429C1384.15,134.424 1384.61,134.423 1385.07,134.425C1403.13,134.599 1420.64,141.701 1434.54,154.134C1453.04,170.693 1464.16,193.96 1470.19,218.751C1470.39,219.571 1470.33,220.423 1470.09,221.216C1480.52,221.058 1491.13,221.096 1502.2,221.485C1503.05,221.516 1503.9,221.548 1504.76,221.581C1508.18,221.718 1511.62,221.636 1515.02,222.082C1518.72,222.568 1524.87,223.997 1530.25,230.957C1537.89,240.857 1538.63,257.739 1534.59,269.612C1531.61,278.366 1525.11,287.554 1512.73,288.247C1499.01,289.015 1485.05,288.793 1471.16,288.406ZM358.501,317.451C355.575,318.314 352.746,319.482 350.086,320.95C341.973,329.369 342.097,343.496 345.538,353.559C347.883,360.417 351.666,367.287 357.651,370.67C357.849,370.696 358.048,370.718 358.247,370.741C360.7,370.998 363.173,371.071 365.638,370.972C352.557,359.948 348.552,338.149 356.048,321.858C356.747,320.337 357.567,318.858 358.501,317.451ZM373.026,315.658C368.762,317.707 365.492,321.932 363.709,326.037C358.388,338.286 360.896,354.224 370.407,363.459C372.971,365.949 376.253,367.886 379.789,368.475C379.97,368.418 380.15,368.36 380.33,368.3C380.489,368.212 380.654,368.131 380.823,368.058C385.82,366.016 390.765,363.705 393.009,357.957C393.324,357.149 393.619,356.334 393.896,355.513L381.591,357.643C380.283,356.998 378.949,356.394 377.801,355.503C370.166,349.584 368.677,336.9 373.484,329.216L375.13,326.741C379.985,325.922 384.839,325.088 389.691,324.243C386.497,320.097 381.975,316.907 375.939,315.858C375.791,315.85 375.643,315.839 375.494,315.824C374.674,315.746 373.851,315.691 373.026,315.658ZM1461.96,221.377C1461.71,220.679 1461.52,219.911 1461.31,219.113C1454.86,193.916 1442.56,169.635 1421.69,155.019C1399.9,139.763 1369.57,139.435 1346.33,155.365C1320.41,173.128 1306.48,204.411 1302.66,234.907C1298.7,266.556 1304.75,300.015 1322.45,326.42C1333.26,342.539 1348.95,356.116 1368.2,361.164C1388.74,366.547 1411.35,360.834 1428.12,346.718C1445.59,332.017 1456.65,310.54 1462.26,288.143C1459.98,288.074 1457.71,288.005 1455.45,287.941C1433.11,287.304 1418.26,287.296 1395.98,285.117C1395.14,285.028 1392.08,283.812 1391.43,283.448C1385.73,280.259 1382.01,273.777 1380.5,267.727C1377.78,256.799 1378.35,246.722 1382.78,236.847C1385.92,229.877 1392.08,223.719 1400.45,223.439C1422.08,222.927 1441.85,221.86 1461.96,221.377ZM579.721,301.665C514.272,312.49 448.182,326.271 383.029,337.571C383.029,337.571 382.487,341.51 384.29,344.853L579.848,311.133C579.984,308.044 579.834,304.869 579.721,301.665ZM580.817,310.966C580.88,310.89 580.892,310.871 580.813,310.954L580.8,310.969L580.817,310.966ZM862.268,264.212L861.576,264.278C794.717,270.777 727.554,279.308 661.545,291.755C659.735,292.097 657.926,292.445 656.12,292.809C655.592,292.915 655.065,293.023 654.537,293.133C652.498,293.559 651.728,295.492 651.543,297.267C651.371,298.914 651.773,300.715 652.997,301.895C654.86,303.691 657.694,303.88 660.093,303.831C660.093,303.831 663.544,302.798 666.157,302.22C688.093,297.37 710.598,294.907 733.059,291.987C776.773,286.305 820.512,281.35 864.344,277.265C864.344,277.265 864.44,277.446 864.518,277.513C862.913,273.553 861.962,269.308 862.21,265.103C862.228,264.806 862.247,264.509 862.268,264.212ZM612.231,274.48C605.543,277.217 599.158,280.771 593.937,285.688C592.61,286.961 592.793,288.018 592.494,289.203C592.293,290.003 592.13,290.811 592,291.626C593.163,293.691 593.234,296.334 591.539,298.307L591.539,298.385C594.246,295.109 597.514,292.314 601.319,290.224C604.47,288.494 607.837,287.181 611.277,286.148C611.277,286.148 611.601,280.365 612.116,275.549C612.153,275.193 612.192,274.837 612.231,274.48ZM949.075,293.443C949,293.465 948.92,293.488 948.838,293.513C948.699,293.657 948.681,293.712 948.824,293.659C950.81,292.916 948.586,293.549 947.662,293.913L949.114,293.548L949.075,293.443ZM647.621,279.158L655.144,277.925C652.972,275.125 650.528,272.526 647.833,270.223C646.967,269.963 645.979,270.018 644.976,270.214C645.875,272.375 646.591,274.613 647.112,276.781C647.301,277.57 647.47,278.362 647.621,279.158ZM1518.09,233.502C1515.77,232.009 1513.05,231.102 1509.95,231.018C1509.8,231.015 1509.65,231.013 1509.5,231.014C1499.36,231.131 1491.44,242.039 1490.73,253.067C1489.98,264.687 1496.39,278.03 1508.82,278.127C1515.18,278.177 1520.74,273.873 1524.18,267.894C1527.92,258.962 1527.41,246.864 1522.62,239.418C1521.64,237.903 1519.92,235.415 1518.09,233.502ZM877.863,277.873L877.871,277.887L877.945,277.95C877.925,277.93 877.896,277.903 877.863,277.873ZM1489.88,231.849C1466.59,231.283 1438.57,233.748 1406.11,234.238C1404,234.27 1400.94,235.134 1399.18,235.702C1393.56,237.517 1391.99,243.077 1391.26,249.931C1390.44,257.617 1390.83,264.677 1394.99,269.94C1395.89,271.071 1400.35,272.891 1401.78,273.028C1424.68,275.223 1452.24,273.347 1483.65,266.145C1480.04,254.547 1482.32,240.841 1489.88,231.849ZM1018.99,252.078L965.112,254.527C960.019,255.407 953.197,254.832 948.558,256.904C948.558,256.904 943.791,260.092 940.583,263.002C939.38,264.092 935.227,269.148 933.162,271.844C933.649,272.297 934.159,272.713 934.767,272.972C937.378,274.089 940.349,273.295 943.621,273.319L1019.26,267.907C1019.03,262.637 1018.94,257.358 1018.99,252.078ZM925.083,265.383C925.064,263.755 925.859,261.81 927.174,259.973C932.16,253.008 939.59,246.832 946.774,244.868C948.814,244.31 950.901,243.939 952.988,243.615C952.988,243.615 951.214,242.056 949.957,241.12C948.364,239.934 946.703,238.558 944.792,238.31C944.77,238.308 944.748,238.306 944.726,238.305C932.56,237.892 917.28,241.11 906.359,245.882C905.696,246.172 904.51,247.14 903.463,248.063C903.194,249.602 902.685,251.101 901.936,252.486C900.965,254.28 899.836,255.986 898.668,257.656C898.668,257.656 897.705,257.951 900.212,257.912C908.979,257.828 917.634,260.59 925.083,265.383Z"/>
    </g>
    <g transform="matrix(0.446742,-1.38778e-17,1.38778e-17,0.446742,-270.982,1093.13)">
        <g transform="matrix(498.981,0,-209.071,498.981,600.106,479.208)">
            <path d="M0.491,0L0.06,0L0.06,-0.75L0.449,-0.75C0.521,-0.75 0.572,-0.736 0.603,-0.708C0.634,-0.68 0.649,-0.639 0.649,-0.586C0.649,-0.532 0.639,-0.491 0.62,-0.462C0.601,-0.433 0.574,-0.413 0.541,-0.404L0.541,-0.397C0.638,-0.38 0.686,-0.314 0.686,-0.199C0.686,-0.139 0.67,-0.091 0.639,-0.055C0.607,-0.018 0.558,0 0.491,0ZM0.394,-0.299L0.3,-0.299L0.3,-0.176L0.392,-0.176C0.426,-0.176 0.443,-0.197 0.443,-0.238C0.443,-0.279 0.427,-0.299 0.394,-0.299ZM0.376,-0.586L0.3,-0.586L0.3,-0.474L0.374,-0.474C0.405,-0.474 0.42,-0.493 0.42,-0.53C0.42,-0.567 0.405,-0.586 0.376,-0.586Z" style="fill-rule:nonzero;"/>
        </g>
        <g transform="matrix(498.981,0,-209.071,498.981,954.382,479.208)">
            <path d="M0.266,-0.119L0.464,-0.119L0.492,0L0.745,0L0.551,-0.75L0.18,-0.75L-0.014,0L0.239,0L0.266,-0.119ZM0.372,-0.52L0.42,-0.31L0.31,-0.31L0.359,-0.52L0.372,-0.52Z" style="fill-rule:nonzero;"/>
        </g>
        <g transform="matrix(498.981,0,-209.071,498.981,1319.14,479.208)">
            <path d="M0.584,-0.25L0.714,0L0.45,0L0.352,-0.223L0.3,-0.223L0.3,0L0.06,0L0.06,-0.75L0.438,-0.75C0.61,-0.75 0.696,-0.662 0.696,-0.487C0.696,-0.367 0.659,-0.288 0.584,-0.25ZM0.355,-0.558L0.3,-0.558L0.3,-0.408L0.355,-0.408C0.384,-0.408 0.406,-0.411 0.419,-0.417C0.432,-0.423 0.438,-0.437 0.438,-0.458L0.438,-0.508C0.438,-0.529 0.432,-0.543 0.419,-0.549C0.406,-0.555 0.384,-0.558 0.355,-0.558Z" style="fill-rule:nonzero;"/>
        </g>
        <g transform="matrix(498.981,0,-209.071,498.981,1687.39,479.208)">
            <path d="M0.456,-0.181L0.3,-0.181L0.3,0L0.06,0L0.06,-0.75L0.438,-0.75C0.61,-0.75 0.696,-0.658 0.696,-0.473C0.696,-0.432 0.692,-0.394 0.684,-0.359C0.676,-0.324 0.663,-0.293 0.644,-0.267C0.625,-0.24 0.6,-0.219 0.57,-0.204C0.539,-0.189 0.501,-0.181 0.456,-0.181ZM0.355,-0.558L0.3,-0.558L0.3,-0.373L0.355,-0.373C0.384,-0.373 0.406,-0.376 0.419,-0.382C0.432,-0.388 0.438,-0.402 0.438,-0.424L0.438,-0.508C0.438,-0.529 0.432,-0.543 0.419,-0.549C0.406,-0.555 0.384,-0.558 0.355,-0.558Z" style="fill-rule:nonzero;"/>
        </g>
        <g transform="matrix(498.981,0,-209.071,498.981,2040.66,479.208)">
            <path d="M0.266,-0.119L0.464,-0.119L0.492,0L0.745,0L0.551,-0.75L0.18,-0.75L-0.014,0L0.239,0L0.266,-0.119ZM0.372,-0.52L0.42,-0.31L0.31,-0.31L0.359,-0.52L0.372,-0.52Z" style="fill-rule:nonzero;"/>
        </g>
        <g transform="matrix(498.981,0,-209.071,498.981,2405.42,479.208)">
            <path d="M0.594,-0.75L0.006,-0.75L0.006,-0.558L0.18,-0.558L0.18,0L0.42,0L0.42,-0.558L0.594,-0.558L0.594,-0.75Z" style="fill-rule:nonzero;"/>
        </g>
        <g transform="matrix(498.981,0,-209.071,498.981,2704.81,479.208)">
            <path d="M0.72,0L0.72,-0.75L0.48,-0.75L0.48,-0.485L0.3,-0.485L0.3,-0.75L0.06,-0.75L0.06,0L0.3,0L0.3,-0.265L0.48,-0.265L0.48,0L0.72,0Z" style="fill-rule:nonzero;"/>
        </g>
        <g transform="matrix(2.15635,0,0,1.18478,-3657.49,-44.0152)">
            <rect x="3054.44" y="238.2" width="264.602" height="91.813"/>
        </g>
        <g transform="matrix(6.12323e-17,1,-1,6.12323e-17,3800.1,-2914.6)">
            <path d="M3215.15,169.187L3369.97,431.923L3207.68,347.013L3060.33,431.923L3215.15,169.187Z"/>
        </g>
    </g>
    <g transform="matrix(1,0,0,1,-102.259,-13.4294)">
        <path d="M657.731,705.259C651.875,696.849 646.671,688.016 642.44,678.64C630.08,651.251 625.305,620.873 622.621,590.958L627.693,590.504C627.72,590.809 627.748,591.115 627.775,591.421C631.242,629.35 638.54,667.828 660.183,700.033C661.155,701.479 662.154,702.923 663.18,704.365C677.392,701.501 690.75,694.733 703,687.382C729.831,671.281 744.882,657.318 771.68,641.196C774.941,639.234 791.925,631.007 792.66,632.537C755.98,650.144 728.045,682.959 687.138,701.57C685.565,702.286 683.98,702.973 682.381,703.629C677.217,705.745 671.822,707.462 666.312,708.651C683.888,732.106 708.97,757.172 723.965,773.064C733.258,782.913 753.284,804.006 753.284,804.006C753.284,804.006 702.199,759.968 680.006,732.754C673.677,724.993 666.782,717.689 660.87,709.644C645.82,711.886 630.208,709.969 616.32,701.357L619.003,697.029C628.482,702.907 639.578,706.073 650.865,705.784C653.173,705.725 655.462,705.545 657.731,705.259ZM567.616,531.406C558.793,510.272 554.413,487.138 557.659,464.734C559.775,450.135 565.757,435.692 577.88,425.925C578.944,427.247 580.009,428.569 581.074,429.89C566.043,442.001 561.262,463.421 561.825,482.03C562.321,498.404 565.906,514.842 572.213,530.061C591.854,524.03 612.181,514.168 628.948,502.395C632.782,499.703 644.485,490.853 658.161,477.672C658.161,477.672 641.725,496.288 636.718,500.393C618.158,515.607 603.96,523.968 581.951,532.42C579.463,533.375 576.948,534.261 574.405,535.064C579.891,546.929 587.07,557.934 595.759,567.437C602.296,574.588 609.921,580.836 618.727,584.894L616.596,589.518C597.088,580.529 582.903,562.499 572.828,542.676C571.78,540.615 570.772,538.527 569.808,536.417C566.202,537.398 562.547,538.2 558.85,538.786L558.053,533.757C561.2,533.088 564.394,532.301 567.616,531.406Z"/>
    </g>
    <g transform="matrix(1,0,0,1,-98.6024,-11.5514)">
        <path d="M707.804,790.31C732.752,805.711 748.37,809.991 768.526,811.492C775.779,812.033 788.113,807.991 794.033,805.503C798.538,803.609 805.633,799.264 810.057,797.157L798.726,808.807C787.485,814.159 780.108,816.9 767.316,816.402C742.658,815.441 717.807,798.944 707.804,790.31Z"/>
    </g>
    <g transform="matrix(0.994552,0.104243,-0.104243,0.994552,-41.8771,-92.9653)">
        <path d="M914.827,723.05C914.827,723.05 914.991,737.533 907.412,748.782C901.326,757.815 892.037,767.604 889.414,769.307L875.934,770.393C881.384,766.854 897.796,753.305 904.911,744.062C913.016,733.533 914.827,723.05 914.827,723.05Z"/>
    </g>
    <g transform="matrix(1,0,0,1,-102.259,-13.4294)">
        <path d="M839.057,794.058C854.372,794.184 870.334,795.675 882.729,803.824C886.583,806.358 889.447,810.361 891.483,814.645C898.02,828.407 897.253,853.911 883.813,863.645C872.568,871.789 857.992,875.368 843.763,874.222C824.138,872.643 822.599,870.108 816.263,866.709C816.263,866.709 828.761,869.94 843.24,869.806C853.472,869.711 865.226,867.023 871.914,864.347C881.28,860.6 886.279,853.897 888.505,843.758C890.707,833.735 888.361,813.429 879.574,807.848C869.017,801.141 856.194,799.087 843.431,798.3C833.685,797.7 823.797,798.901 814.624,802.413L812.804,799.658C821.146,796.463 830.143,794.023 839.057,794.058Z"/>
    </g>
    <g transform="matrix(1,0,0,1,-102.259,-13.4294)">
        <path d="M571.603,796.345C583.702,796.466 597.157,803.704 605.22,812.507C615.038,823.226 621.275,838.468 616.32,852.64C612.952,862.27 603.018,870.83 593.906,874.758C575.057,882.884 550.217,871.744 536.834,855.958C535.397,854.263 534.087,852.456 532.99,850.515C532.99,850.515 537.138,852.237 537.293,852.49C543.995,863.199 559.585,869.977 568.923,871.74C581.349,874.086 594.733,871.819 602.782,861.312C608.81,853.444 612.783,843.065 610.419,833.103C606.829,817.974 593.062,804.176 578.979,800.722C572.199,799.059 564.603,799.663 558.87,804.382L555.634,800.451C560.258,796.644 565.634,796.325 571.603,796.345Z"/>
    </g>
    <g transform="matrix(0.999956,0.00941527,-0.00941527,0.999956,-88.4746,-17.7649)">
        <path d="M560.847,862.611C562.155,864.36 563.533,867.415 564.024,869.472C573.514,909.275 586.999,949.505 594.163,978.048C600.124,1001.8 605.132,1031.23 607.36,1045.32C608.061,1049.76 606.353,1061.77 606.353,1061.77C598.449,1000.84 580.028,950.738 566.341,895.285C564.483,887.756 559.376,866.746 555.565,855.649C555.565,855.649 559.763,861.162 560.847,862.611Z"/>
    </g>
    <g transform="matrix(1,0,0,1,-90.3495,-6.53762)">
        <path d="M600.117,808.923C647.29,809.045 694.208,819.72 738.924,831.277C743.631,832.494 749.677,834.432 753.603,836.391C756.484,837.829 762.482,843.034 762.482,843.034C720.626,831.159 666.773,818.691 623.031,815.061C603.229,813.418 586.384,811.365 567.526,816.778C563.001,818.077 546.542,822.928 546.542,822.928C554.485,815.023 573.436,810.404 584.632,809.036C591.294,808.222 593.435,808.921 600.117,808.923Z"/>
    </g>
    <g transform="matrix(1,0,0,1,-103.057,-10.4041)">
        <path d="M731.46,527.515C734.138,543.898 736.301,563.33 746.118,575.739C752.857,584.256 767.202,591.92 774.551,593.344C784.882,595.345 795.287,593.715 805.478,590.351L808.641,596.974C795.129,601.433 778.077,602.475 765.076,597.101C748.094,590.083 735.944,575.78 731.216,546.268C730.284,540.449 731.405,527.317 731.46,527.515Z"/>
    </g>
    <g transform="matrix(1,0,0,1,-81.4389,3.41001)">
        <path d="M860.94,795.291C886.625,795.376 910.757,791.806 923.265,792.577C928.152,792.878 934.697,798.694 934.697,798.694C903.833,799.242 872.643,800.304 845.321,800.827C834.895,801.026 811.021,803.387 811.021,803.387C818.804,796.241 832.017,796.848 842.288,795.955C848.488,795.415 854.711,795.284 860.94,795.291Z"/>
    </g>
    <g transform="matrix(1,0,0,1,-98.2592,-13.4294)">
        <path d="M837.46,852.595C840.286,855.958 842.753,858.858 846.579,865.97C879.2,926.62 898.543,975.235 911.692,1009.69C915.881,1020.66 922.694,1075.09 922.694,1075.09C915.485,1052.29 915.113,1036.12 906.948,1012.86C890.331,965.517 865.943,912.78 841.343,867.03C837.433,859.757 833.517,852.662 829.626,845.792C829.626,845.792 835.695,850.493 837.46,852.595Z"/>
    </g>
    <g transform="matrix(1,0,0,1,-102.259,-13.4294)">
        <path d="M852.787,427.803C851.67,436.587 848.881,444.99 845.443,452.177C832.259,479.737 802.247,524.686 784.489,545.611L769.561,560.855C797.361,516.215 831.552,475.287 841.817,445.678L852.787,427.803Z"/>
    </g>
    <g transform="matrix(1,0,0,1,-99.2592,-13.4294)">
        <path d="M876.75,266.82L875.332,286.751L857.679,402.549L850.999,412.245L876.75,266.82Z"/>
    </g>
    <g transform="matrix(1,0,0,1,-102.259,-13.4294)">
        <path d="M609.024,290.81L587.709,410.792L582.078,414.53L603.186,305.606C603.186,305.606 607.352,290.516 609.024,290.81Z"/>
    </g>
    <g transform="matrix(1,0,0,1,-101.79,-7.22291)">
        <path d="M859.784,391.638C861.515,391.65 863.246,391.731 864.965,391.922C873.899,392.912 881.044,398.77 884.458,407.807C889.815,421.984 882.982,444.241 867.226,449.648C854.107,454.151 846.826,449.702 840.012,446.364C825.749,439.378 822.664,421.538 823.465,406.038C823.465,406.038 827.045,411.262 827.045,411.262C827.045,411.262 830.786,432.217 838.648,437.807C842.899,440.829 851.689,444.347 856.445,444.481C862.815,444.66 870.493,440.904 874.997,436.035C879.998,430.627 881.885,422.804 881.059,415.49C880.455,410.144 876.209,402.814 871.469,399.633C861.01,392.615 840.322,397.83 840.322,397.83L830.506,398.638C839.235,395.481 850.546,391.633 859.784,391.638Z"/>
    </g>
</svg>
